<?xml version="1.0" encoding="UTF-8"?>
<svg id="Layer_1" data-name="Layer 1" xmlns="http://www.w3.org/2000/svg" viewBox="0 0 549.58 152.09">
  <path d="m51,113.11v-1.29l5.28-1.29c3.52-.77,5.28-2.92,5.28-6.44V30.69h-10.95c-3.18,0-5.45.84-6.83,2.51-1.37,1.67-2.83,3.97-4.38,6.89l-4.64,9.02h-1.29l.64-20.99h74.31l.52,20.99h-1.29l-4.64-9.02c-1.46-2.92-2.88-5.22-4.25-6.89-1.37-1.67-3.65-2.51-6.83-2.51h-10.95v73.41c0,3.52,1.76,5.67,5.28,6.44l5.28,1.29v1.29h-40.57.03Z"/>
  <path d="m113.44,113.11v-1.02l1.22-.41c2.45-.82,3.67-2.51,3.67-5.1v-54.48c0-1.43-.24-2.48-.71-3.16-.48-.68-1.39-1.19-2.75-1.53l-1.53-.41v-1.02l17.96-4.39,1.63.92-.41,14.38v12.75c2.38-1.97,4.95-3.65,7.7-5.05,2.75-1.39,5.8-2.09,9.13-2.09,4.42,0,7.94,1.26,10.56,3.77,2.62,2.52,3.93,6.39,3.93,11.63v28.77c0,1.36.27,2.45.82,3.26.54.82,1.5,1.43,2.86,1.84l.82.31v1.02h-23.87v-1.02l1.22-.31c2.45-.82,3.67-2.55,3.67-5.2v-32.03c0-2.72-.46-4.59-1.38-5.61s-2.53-1.53-4.85-1.53c-1.5,0-3.13.29-4.9.87-1.77.58-3.57,1.58-5.41,3.01v35.5c0,2.65,1.22,4.35,3.67,5.1l.82.2v1.02h-23.87Z"/>
  <path d="m197.91,62.51c4.42,0,8.19.9,11.32,2.7,3.13,1.8,5.52,4.25,7.19,7.35s2.5,6.61,2.5,10.56c0,.75-.04,1.51-.1,2.3-.07.78-.2,1.48-.41,2.09h-30.4c.07,7.34,1.38,12.63,3.93,15.86,2.55,3.23,6.34,4.85,11.38,4.85,3.4,0,6.15-.54,8.26-1.63s4.08-2.69,5.92-4.8l1.02.92c-2.11,3.74-4.91,6.67-8.42,8.77-3.5,2.11-7.7,3.16-12.6,3.16s-9.11-1.04-12.85-3.11-6.67-5.05-8.77-8.93c-2.11-3.88-3.16-8.5-3.16-13.87s1.22-10.32,3.67-14.23c2.45-3.91,5.59-6.89,9.44-8.93,3.84-2.04,7.87-3.06,12.09-3.06h0Zm-.31,2.04c-1.97,0-3.66.6-5.05,1.79s-2.48,3.3-3.26,6.32c-.78,3.03-1.21,7.29-1.27,12.8h17.45c.68-7.41.41-12.75-.82-16.02-1.23-3.26-3.57-4.9-7.04-4.9h0Z"/>
  <path d="m291.76,114.95c-8.07,0-15.37-1.64-21.9-4.93s-11.71-8.17-15.53-14.66c-3.83-6.49-5.74-14.43-5.74-23.83,0-7.15,1.16-13.43,3.49-18.84s5.51-9.94,9.54-13.6c4.03-3.66,8.69-6.4,13.97-8.23,5.28-1.83,10.87-2.74,16.78-2.74,4.74,0,9.11.54,13.1,1.62,3.99,1.08,7.74,2.58,11.23,4.49l.5,15.35h-1.25l-6.24-9.98c-.83-1.58-1.75-3.01-2.75-4.3s-2.24-2.27-3.74-2.93c-1.25-.58-2.47-1.02-3.68-1.31-1.21-.29-2.72-.44-4.55-.44-4.83,0-9.21,1.29-13.16,3.87s-7.11,6.84-9.48,12.79c-2.37,5.95-3.56,14.08-3.56,24.39s1.12,18.32,3.37,24.27c2.24,5.95,5.3,10.19,9.17,12.73,3.87,2.54,8.21,3.81,13.04,3.81,2.66,0,4.78-.19,6.36-.56s3.16-.94,4.74-1.68c1.58-.66,2.79-1.64,3.62-2.93s1.58-2.68,2.25-4.18l5.49-12.23h1.25l-.37,17.84c-3.49,1.83-7.4,3.33-11.73,4.49-4.33,1.16-9.07,1.75-14.22,1.75v-.03Z"/>
  <path d="m337.67,114.64c-3.94,0-7.26-1.12-9.95-3.37s-4.03-5.47-4.03-9.69c0-3.2,1.63-6.14,4.9-8.82,3.27-2.69,8.4-4.71,15.41-6.07,1.09-.2,2.31-.42,3.67-.66,1.36-.24,2.79-.49,4.29-.76v-8.06c0-4.62-.56-7.87-1.68-9.74-1.12-1.87-2.87-2.81-5.25-2.81-1.63,0-2.93.53-3.88,1.58-.95,1.06-1.56,2.87-1.84,5.46l-.2,1.12c-.14,2.92-.85,5.07-2.14,6.43s-2.89,2.04-4.79,2.04c-1.77,0-3.23-.54-4.39-1.63s-1.73-2.55-1.73-4.39c0-2.79.97-5.13,2.91-7.04,1.94-1.9,4.5-3.33,7.7-4.29,3.2-.95,6.66-1.43,10.41-1.43,6.05,0,10.73,1.48,14.03,4.44,3.3,2.96,4.95,7.77,4.95,14.44v22.55c0,3.06,1.43,4.59,4.29,4.59h2.25l.92.82c-1.29,1.63-2.7,2.89-4.23,3.77s-3.69,1.33-6.48,1.33c-2.99,0-5.36-.7-7.09-2.09s-2.87-3.25-3.42-5.56c-2.04,2.18-4.13,4.03-6.27,5.56-2.14,1.53-4.92,2.3-8.32,2.3l-.04-.02Zm6.22-6.22c1.36,0,2.63-.32,3.83-.97,1.19-.65,2.6-1.65,4.23-3.01v-17.14c-.68.14-1.36.27-2.04.41-.68.14-1.46.27-2.35.41-3.13.82-5.63,2.19-7.5,4.13-1.87,1.94-2.81,4.54-2.81,7.8,0,2.79.65,4.88,1.94,6.27s2.86,2.09,4.69,2.09h.01Z"/>
  <path d="m395,114.64c-4.35,0-7.74-1.09-10.15-3.26-2.41-2.18-3.62-5.64-3.62-10.41v-34.89h-7.04v-1.02l2.45-.41c2.11-.47,3.93-1.16,5.46-2.04s3.04-2.07,4.54-3.57l8.37-9.28h1.02l-.31,14.28h11.43v2.04h-11.53v36.73c0,2.38.53,4.18,1.58,5.41s2.4,1.84,4.03,1.84c1.43,0,2.69-.36,3.77-1.07s2.18-1.68,3.27-2.91l1.02,1.02c-1.36,2.31-3.23,4.15-5.61,5.51-2.38,1.36-5.27,2.04-8.67,2.04h0Z"/>
  <path d="m437.44,114.64c-4.62,0-8.82-1-12.6-3.01-3.77-2.01-6.77-4.93-8.98-8.77-2.21-3.84-3.32-8.55-3.32-14.13s1.21-10.22,3.62-14.13c2.41-3.91,5.64-6.9,9.69-8.98,4.04-2.07,8.48-3.11,13.31-3.11,3.94,0,7.28.65,10,1.94s4.8,2.98,6.22,5.05c1.43,2.08,2.14,4.23,2.14,6.48,0,1.9-.58,3.38-1.73,4.44s-2.65,1.58-4.49,1.58c-1.97,0-3.57-.71-4.79-2.14s-1.94-3.3-2.14-5.61c-.07-1.49-.04-2.77.1-3.83.14-1.05.14-2.12,0-3.21-.27-1.16-.7-1.92-1.28-2.3-.58-.37-1.38-.56-2.4-.56-4.15,0-7.36,1.8-9.64,5.41-2.28,3.61-3.42,9.35-3.42,17.24,0,6.87,1.28,12.12,3.83,15.76s6.48,5.46,11.78,5.46c3.2,0,5.78-.58,7.75-1.73,1.97-1.16,3.88-2.89,5.71-5.2l1.02.82c-1.7,4.01-4.32,7.11-7.85,9.28-3.54,2.18-7.72,3.26-12.55,3.26h.02Z"/>
  <path d="m460.7,113.11v-1.02l1.23-.41c2.45-.82,3.67-2.51,3.67-5.1v-54.48c0-1.43-.24-2.48-.71-3.16-.48-.68-1.39-1.19-2.75-1.53l-1.53-.41v-1.02l17.95-4.39,1.63.92-.41,14.38v12.75c2.38-1.97,4.95-3.65,7.7-5.05,2.75-1.39,5.8-2.09,9.13-2.09,4.42,0,7.94,1.26,10.56,3.77,2.62,2.52,3.93,6.39,3.93,11.63v28.77c0,1.36.27,2.45.82,3.26.54.82,1.49,1.43,2.85,1.84l.82.31v1.02h-23.87v-1.02l1.22-.31c2.45-.82,3.67-2.55,3.67-5.2v-32.03c0-2.72-.46-4.59-1.38-5.61s-2.53-1.53-4.84-1.53c-1.5,0-3.13.29-4.9.87s-3.57,1.58-5.41,3.01v35.5c0,2.65,1.23,4.35,3.67,5.1l.81.2v1.02h-23.87,0Z"/>
</svg>