<?xml version="1.0" encoding="UTF-8"?>
<svg id="Layer_1" data-name="Layer 1" xmlns="http://www.w3.org/2000/svg" viewBox="0 0 480 480">
  <defs>
    <style>
      .cls-1 {
        fill: #ed2024;
      }
    </style>
  </defs>
  <path class="cls-1" d="m231.89,185.63c-5.01-6.48-9.4-7.51-12.3-12.08-.5-.78-1.27-2.18-2.83-3.73-1.14-1.14-1.4-1.06-2.08-1.99-.4-.54-.93-1.68-1.99-3.95-.37-.78-.55-1.18-.64-1.4-.3-.79-.3-1.01-.54-1.27-.45-.47-1.38-.65-1.85-.38-1.55.91,1.51,7.21.22,7.98-.88.52-3.44-1.72-4.79-3.79-1.22-1.87-1.82-2.8-1.98-4.2-.06-.56-.08-1.44-.54-1.63-.36-.14-.83.18-1.19.49-.19.4-.39.94-.49,1.58-.25,1.53.19,2.78.45,3.38,2.12,3.27,3.17,4.91,3.17,4.92,0,0-.37-.55-1.1-1.67-.58-.54-1.06-1.04-1.45-1.49-.07-.08-.12-.14-.16-.19-.5-.59-.91-1.14-1.24-1.62.02-1.98-.31-3.31-.55-4.07-.15-.45-.34-.93-.77-1.08-.46-.16-1,.13-1.31.43-.42.41-.5.94-.57,1.96-.1,1.49-.15,2.34-.06,3.07.46,3.49,4.49,7.27,4.49,7.27,1.36,1.27,2.43,2.14,3.36,2.81,3.64,2.62,4.34,2.84,6.21,4.37,0,0,4.93,4.03,6.39,10.23.28,1.2.8,3.55-.47,5.12-.16.2-.32.34-.42.43,5.6-1.44,11.2-4.16,16.8-6.96-.32-.5-.94-1.44-1.8-2.55Z"/>
  <path class="cls-1" d="m379.06,169.09c-.55-.97-1.1-1.94-1.75-2.84-2.79-3.88-4.85-8.05-5.94-12.78-.62-2.68-1.84-5.26-3.08-7.73-4.4-8.77-10.86-15.74-18.96-21.23h-1.67c-2.2,1.98-2.69,4.34-1.94,7.19.78,2.96,1.32,5.99,1.89,9,1.05,5.53.49,6.13-5.18,5.16-8.37-1.42-16.71-3.01-25.09-4.36-2.54-.41-6.05-1.08-6.88,2.05-.7,2.63,2.65,3.49,4.68,4.52,3.48,1.77,6.83,3.67,10.03,5.96,3.18,2.28,1.71,7.5,6.26,9.03.84.28,1.55,3.61,2.14,5.47.71,2.25-2.76,2.56-3.85,4.26-.37.57-1,.97-1.44,1.5-7.83,9.6-17.7,16.87-27.47,24.29-9.02,6.85-19.13,11.92-28.68,17.9-6.57,4.12-9.2,9.35-7.92,17.16,1.57,9.54,4.36,18.71,7.03,27.94,2.21,7.65-1.09,12.68-9.07,13.34-7.2.59-13.99.27-17.68-7.63-.98-2.1-3.03-3.65-5.08-4.87-2.64-1.55-2.95-3.59-2.14-6.4,1.54-5.35,2.94-10.76,4.05-16.21,1.27-6.27,3.06-12.67,1.79-19.04-2.1-10.51-4.63-20.95-7.44-31.29-1.12-4.12-1.77-9.32-7.92-9.66-.16,0-.29-.05-.42-.11-3.81,1.9-7.63,3.76-11.44,4.74-3.45,4.09,7.45,21.78,7.44,39.52,0,3.74-.12,9.23-3.16,15.1-2.53,4.89-6.55,7.74-14.51,13.49-.92.67-4.42,3.16-5.67,2.17-.95-.75.25-2.85-1.16-5.22-.57-.96-1.31-1.53-2.12-2.17-1.77-1.39-2.61-1.19-4.19-2.43-1.5-1.18-1.26-1.76-2.3-2.57-2.14-1.67-4.05.11-7.98-.41-5.01-.66-5.75-4.08-10.62-3.93-1.06.03-2.8.25-2.9-.13-.07-.28.85-.63,2.16-1.86.72-.67,1.36-1.42,1.28-1.52-.2-.24-4.32,3.56-5.44,2.72-.52-.39-.06-1.53-.45-1.71-.52-.24-1.67,1.67-3.08,3.4-3.18,3.88-6.86,5.8-8.8,8.26-.17.22-.54.7-1.14,1.42-.99,1.19-1.35,1.51-2.25,2.85-7.01,10.35-1.52,22.33,6.94,26.32,4.29,2.02,8.49,4.19,13.33,4.58,1.6.13,3.31.39,3.12,2.49-.24,2.58.9,4.63,2.18,6.6,1.74,2.7,1.22,5.03-.87,7.16-1.36,1.39-2.84,2.67-4.31,3.95-3.17,2.76-5.16,5.9-3.35,10.27,1.07,2.59-.32,3.98-2.43,4.9-4.62,2.02-8.8,4.78-12.95,7.58-2.2,1.49-4.7,2.39-7.24,3.17-3.03.93-5.24.29-7.2-2.41-3.26-4.51-6.8-8.83-10.33-13.13-1.38-1.68-2.82-3.84-5.09-3.95-4.95,3.96-9.91,7.86-15.82,8.92-.02.03-.03.07-.05.1-3.06,3.95-.49,6.78,1.88,9.54,5.09,5.93,9.92,12.03,13.91,18.78,1.49,2.53,3.6,4.58,5.6,6.73,2.93,3.15,6.08,3.42,10.18,2.41,17.54-4.29,33.55-11.82,48.41-21.97,2.24-1.53,4.49-2.51,7.38-2.13,13.39,1.75,26.78,3.54,40.21,4.9,9.3.95,17.52,3.93,24.64,10.12,2.39,2.07,5.32,3.54,8.06,5.19,3.89,2.34,7.95,2.84,12.42,1.56,4.55-1.31,9.29-2.09,14.03-1.87,3.5.16,5.32-1.23,6.64-4.33,1.35-3.16,2.74-6.39,6.37-7.88,6.24-2.57,11.52-6.72,16.86-10.74,5.21-3.91,7.85-9.29,8.96-15.53.89-4.97,1.09-9.97.42-14.99-2.2-16.44-3.84-32.93-4.98-49.48-.41-5.92-.4-11.41,4.5-15.72.79-.69,1.39-1.81,1.66-2.85,2.12-7.97,5.64-15.43,8.45-23.15,3.72-10.2,10.64-16.8,21.67-18.48,4.06-.62,7.79-2.1,11.24-4.29,7.99-5.08,8.31-6.41,3.64-14.71Z"/>
  <path class="cls-1" d="m110.74,318.85c-1.3-1.75-2.56-3.52-3.73-5.35-1.9-2.94-3.56-3.02-5.06-5.59-1.23-2.12-.79-2.36-1.98-3.82-1.03-1.27-2.85-2.88-3.46-4.18-.35-.75-.56-1.55-.56-1.55-.05-.2-.12-.46-.17-.79-.13-.86-.26-1.77.25-2.33.26-.28.72-.51,1.1-.39.43.13.62.66.7.9.49,1.36,1.22,2.66,1.58,3.19.85,1.28,1.39.89,3.49,2.69.18.15.55.48.96.39.33-.07.62-.39.65-.73.03-.36-.24-.66-.36-.78-.98-1.02-2.84-2.5-3.38-2.98-1.33-1.17-1.88-2.57-2.31-3.65-.58-1.47-.6-2.45-.64-3.79-.02-.76.03-1.34.42-1.61.47-.32,1.15,0,1.19.02.8.38,1.05,1.34,1.22,1.88,0,0,.62,1.94,2.28,3.96,1.08,1.32,1.65,1.21,4.28,3.79.25.25.46.45.59.59-1.24-1.97-2.3-3.5-3.03-4.51-1.25-1.74-1.86-2.46-2.02-3.76-.15-1.17.11-2.42.22-2.97.18-.87.43-1.58.63-2.08.01-.19.06-.38.2-.53.44-.47,1.63-.25,2.25.33.72.68.4,1.63.59,3.2.2,1.59.79,2.67,1.49,3.95.58,1.07,1.83,2.99,4.32,4.72-.31-.56-.76-1.41-1.26-2.47-1.42-3.02-2.12-4.57-1.8-6.17.08-.4.44-1.17,1.16-2.72.1-.22.28-.6.68-.88.13-.09.56-.4,1.12-.32.08.01.62.08.88.48.32.5,0,1.22-.12,1.56-.41,1.13-.13,2.18.36,4.09.95,3.65,4.1,4.72,4.44,7.18.02.16.07.88.59,1.48.36.41.94.8,1.44.83.49.03.81-.63.94-1.07.31-1.08-.56-1.77-1.46-4.28-.48-1.33-.46-1.77-.33-2.13.32-.91,1.41-1.61,1.99-1.36.26.11.43.49.75,1.25.2.47.3.77.39,1,.32.86.69,1.18,1.16,1.91.75,1.15,1.05,2.21,1.33,3.16.27.94.42,1.45.44,2.2.04,1.56-.57,2.72-.8,3.29-.29.75-.87,1.43-1.42,2.05-1.94,2.19-2.99,4.59-2.06,7.57.01.04.03.09.04.13-3.93.48-7,2.84-10.17,5.02Z"/>
</svg>