<?xml version="1.0" encoding="UTF-8"?>
<svg id="Layer_2" data-name="Layer 2" xmlns="http://www.w3.org/2000/svg" viewBox="0 0 1549.77 892.25">
  <g>
    <path d="m1311.26,798.78c-.69-1.58-1.35-3.14-1.97-4.67-11.82-28.67-13.57-49.21-12.51-63.42.32-4.28,1.59-14.73-1.18-28.15-2.79-13.47-8.77-26.09-17.69-37.74-3.7-4.84-8.48-8.66-13.87-11.55-2.97-1.59-4.9-3.92-6.17-6.96-6.09-14.55-11.41-29.16-12.68-45.21-1.49-18.68-13.75-29.91-29.58-37.85-1.89-.95-3.83-1.95-5.86-2.42-11.56-2.65-20.84-9.22-29.76-16.63-6.98-5.79-14.35-11.12-21.6-16.58-3.44-2.6-6.06-5.8-8.24-9.52-9.9-16.81-24.97-26.82-43.33-32.13-6.54-1.89-13.22-1.37-19.52,1.52-2.42,1.11-4.65.95-6.96-.18-2.04-1-4.08-1.98-6.19-2.82-6.95-2.73-11.98-6.68-14.95-14.34-4.55-11.71-13.98-19.53-25.35-24.8-6.4-2.97-13.05-2.41-19.54-.67-9.42,2.53-18.09-3.45-18.55-13.37-.36-7.75-2.73-14.85-6.5-21.52-3.83-6.8-9.2-12.03-16.51-14.91-1.45-.57-2.58-1.31-3.43-2.26-1.63-1.8-2.01-3.91-2.09-4.29-.44-2.07-7.74-21.49-44.44-43.06-33.86-19.91-40.55-10.95-55.35-25.5-20.79-20.43-16.98-47.35-23.63-47.26-7.99.09-21.77,38.97-11.19,75.87,5.32,18.59,12.37,21.11,24.87,47.27,12.08,25.23,13.58,39.74,20.31,63.02,4.32,15,16.61,66.23,50.87,106.93,22.65,26.89,49.3,49.48,76.13,71.88,23.18,19.36,44.2,40.85,63.98,63.6,1.76,2.03,2.67,4.32,3.34,6.85,2.19,8.37,3.67,16.79,4.59,25.27,1.31,11.91,1.54,23.92,1.15,35.99-.26,8.31-.78,16.62-.09,24.94.36,4.4-.12,8.73-.79,13.05-.36,2.4-.79,4.8-1.15,7.21,2.89-.05,5.78-.1,8.67-.16,75.51-1.33,151.02-2.65,226.54-3.98,1.85-.03,3.7-.06,5.55-.09-1.93-3.92-3.7-7.71-5.3-11.38Zm-377.85-353.56c-2.67,3.62-5.48,7.21-9.37,9.65-.39.25-1.18,0-1.75-.17-9.52-2.9-16.13-12.14-15.89-22.19.17-6.61,5.12-11.06,13.48-12.1,4.5-.55,6.98,1.65,8.56,7.59-4.74-3.22-8.79-2.93-11.35.82-2.76,4.03-.62,11.66,4.14,14.79,3.73,2.44,6.3,1.08,11.21-6.52.63,3.28,2.8,5.63.97,8.12Zm33.76-38c4.28-1.53,6,2.15,8.8,4.45-5.85.59-9.78,3.93-10.16,8.26-.31,3.63,3.09,8.61,6.82,9.79,4.75,1.5,7.34-1.14,9.3-5.65,1.49,2.18,1.59,4.02,1.5,5.82-.37,7.16-6.22,11.58-11.88,8.71-8.2-4.17-13.54-10.5-13.59-20.26-.02-4.34,3.82-9.19,9.22-11.11Zm35.88,103.78c-1.05,5.58-4.41,9.19-9.69,10.92-4.76,1.57-8.86.37-12.27-3.41-.87-.96-2.18-1.6-3.39-2.17-7.15-3.37-12.79-8.46-17.25-14.92-1.37-1.97-2.97-3.89-3.07-6.45-.3-8.46,4.5-13.81,11.26-17.69,6.94-3.98,12.81-3.52,18.5,1.22,7.63,6.37,12.56,14.55,15.35,23.45.89,3.35,1.09,6.18.55,9.05Zm239.76,164.48c5.56-6.07,12.51-6.27,18.54-.85,10.31,9.27,17.97,20.01,19.4,34.08,2.3,7.33,3.66,14.53,2.72,22.07-.52,4.2-2.57,6.54-6.66,7.41-8.65,1.84-16.75.34-22.28-6.58-8.65-10.82-15.44-22.83-16.93-37.04-.74-6.97.25-13.67,5.21-19.09Zm-54.4-93.75c.56-4.56,4.14-8.33,7.92-7.78,13.26,1.92,25.39,5.89,31.92,19.18,2.2,4.5,3.99,9.13,5.19,14.47.17,2.77,2.63,5.85.54,9.2-6.69,10.69-21.5,11.81-29.46,2.04-3.8-4.68-7.32-9.63-10.65-14.66-4.49-6.77-6.45-14.29-5.46-22.44Zm-6.25,119.27c8.95,11.62,13.19,25.11,15.54,39.27,1.04,6.28-.31,12.44-3.92,17.79-4.84,7.18-11.39,12.14-20.4,11.19-9.35-.98-15.73-6.56-18.84-15.55-2.07-6.01-3.97-12.08-5.94-18.11.03-.01.06-.02.09-.03-1.29-4.2-2.53-8.41-3.89-12.57-1.77-5.43-.96-10.45,2.2-15.14,1.52-2.26,3.04-4.51,4.66-6.7,8.76-11.92,21.41-11.92,30.5-.15Zm-20.82-70.95c.59,2.49,1.41,4.97,1.74,7.5.97,7.72-2.45,14.76-9.34,18.14-7.84,3.85-15.87,6.15-23.87-.04-12.34-9.55-19.23-21.73-19.39-37.65-.09-8.68,2.77-15.26,10.43-19.63,7.85-4.49,14.99-3.14,21.95,2.04,10.05,7.48,16.33,17.27,18.49,29.64Zm-64.85-124.6c5.12-3.87,15.02-3.02,19.93,1.84-.61,1.08-1.83.79-2.74,1.17-3.48,1.47-4.49,4.34-1.87,7.06,3.76,3.91,8.02,7.34,12.68,10.17,2.04,1.24,4.05,1.08,5.63-.96,1.51-1.95,1.42-3.9-.12-5.78-1.32-1.58-2.67-3.13-4.01-4.69,8.09,4.59,12.47,12.13,16.5,19.93.85,1.67.22,3-1.54,3.56-3.89,1.24-7.75,2.31-11.95,1.11-15.26-4.31-25.01-15.17-33.25-27.82-1.17-1.8-1.5-3.92.75-5.61Zm-73.03-21.79c-3.13-3.28-6.18-6.64-9.23-10.01-2.31-2.54-3.54-5.55-4-8.97-.21-1.52.05-2.55,1.29-3.52,6.96-5.5,18.49-4.34,25.06,3.08-2.99-.41-5.48-.65-7.93-1.1-3.35-.61-4.02,1.01-3.51,3.87.79,4.4,5.81,9.61,10.25,10.58,3.29.73,6.41-1.3,7.03-4.7.23-1.27.1-2.61.16-4.34,4.77,3.26,6.58,7.84,7.85,12.67,1.24,4.7-.09,6.7-4.94,6.74-4.51.04-9.04-.88-13.54-.8-3.51.06-6.19-1.1-8.47-3.49Zm36.83,95.59c-3.76-1.76-6.93-4.35-9.12-7.93-4.1-6.7-8.23-13.4-12.11-20.24-3.19-5.64-2.77-11.41.9-16.7,6.28-9.02,23.44-13.16,33.17-8.08,12.88,6.7,20.72,17.29,23.96,31.37,1.88,7.36,2.04,10.98.63,15.62-2.41,8.02-10.13,13.61-17.98,11.79-6.56-1.53-13.27-2.93-19.46-5.83Z"/>
    <path d="m1185.33,725.97c-1.11-3.61-2.07-7.27-3.37-10.81-1.5-4.1-4.42-5.52-8.61-4.42-1.89.49-3.75,1.14-5.62,1.71-2.14.66-3.29,2.07-3.2,4.34.08,2.12,1.29,3.42,3.35,3.61,2.91.26,4.14,2.08,4.85,4.6,1.07,3.78,2.23,7.53,3.3,11.3.59,2.05-.05,3.55-2.17,4.26-2.04.68-2.61-.74-3.24-2.19-1.02-2.34-2.57-4.7-5.33-3.8-3.09,1.01-3.16,4.12-2.78,6.92.3,2.14,1.36,3.97,2.94,5.49,3.89,3.73,10.29,4.15,16.11,1.06,4-2.13,6.6-7.5,5.72-12.3-.6-3.26-1.5-6.47-2.27-9.7l.3-.08Z"/>
    <path d="m1064.64,546.85c2.05,1.3,2.79,3,3.79,4.46,3.34,4.88,3.33,4.97-2.44,6.08-3.03.58-2.95,2.01-1.51,4.1,2.59,3.76,10.06,6.15,14.32,4.49,3-1.16,4.63-3.25,4.17-6.67-1.09-8.11-4.91-14.53-11.79-19-2.98-1.94-5.79-2.26-7.16,1.86-.51,1.54-1.55,2.02-2.81,2.59-1.8.81-2.94,2.2-2.53,4.31.3,1.55,1.07,3.05,2.75,3.23,1.58.17,1.52-1.56,2.01-2.58.38-.8.69-1.63,1.21-2.86Z"/>
    <path d="m1138.19,630.58c-3.54-2.58-6.2-3.76-8.88-1.47-2.71,2.31-1.63,5.26-.88,8.01,2.45,9.01,7.77,11.74,15.33,8.05,2.85-1.39,4.43-3.64,4.86-6.64,1.42-9.73-1.23-18.31-7.98-25.41-3.65-3.84-8.47-5.15-13.72-4.3-4.53.73-6.8,4.97-5.02,9.19.73,1.73,1.9,3.34,3.78,3.6,1.88.26,2.01-1.92,2.92-3.01,1.03-1.24,1.33-3.74,3.01-3.61,1.8.13,2.49,2.43,3.3,4.03,1.65,3.23,2.23,6.76,3.27,11.57Z"/>
    <path d="m1260.02,699.71c.58,2.44,1.03,4.65,1.63,6.81.8,2.84,1.23,5.21-1.46,7.72-2.53,2.36-1.87,5.75.45,8.17,2.74,2.86,6.14,3.05,9.5.94,4.46-2.79,7.19-10.2,5.92-16.15-.89-4.14-1.95-8.24-2.93-12.35-.73-3.09-2.51-5.47-5.07-7.27-4.07-2.86-6.5-2.58-9.97.97-1.05,1.08-2.25,2.02-3.34,3.05-2.06,1.94-2.67,4.38-2.05,7.05.5,2.14,1.67,4.16,3.86,4.64,2.34.52,1.41-2.64,3.47-3.6Z"/>
    <path d="m995,501.05c-2.19-4.94-4.75-9.9-10.32-12.3-2.75-1.18-5.64-1.16-7.06,1.84-1.5,3.17-4.44,6.43-1.01,10.25,3.22,3.59,7.05,6.09,11.79,7.12,3.98.86,7.52-2.68,6.6-6.9Z"/>
    <path d="m1226.97,602.21c-2.07-9.21-7.49-14.23-14.55-17.65-2.49-1.2-5.53.02-8.25-1.33-1.4-.69-2.28.93-2.69,2.34-.62,2.17-.43,4.57.79,6.13,4.4,5.62,6.88,12.7,13.27,16.84,3.17,2.05,5.84,2.63,9.12.51,3.3-2.13,2.79-4.98,2.31-6.85Z"/>
  </g>
  <g>
    <path d="m184.06,800.11c-1.36-22.89-8.21-41.47-18.68-57.22-1.07-1.61-3.62-2.82-2.06-6.3,4.57-10.25,2.96-21.82,3-32.95.03-7.41-2.3-13.61-5.77-18.78-8.63-12.8-9.34-34.44-1.55-48.32,3.88-6.9,5.72-14.53,4.63-23.74-.53-4.43-.41-8.97,1-12.97,3.38-9.67,3.48-20.3,3.96-30.81.2-4.24-.17-8.65-1.94-11.91-2.37-4.36-3.06-9.53-3.95-14.74-.82-4.73-1.6-9.57-2.91-14-4.12-13.81-12.91-18.67-21.79-12.37-4.69,3.34-9.03,7.94-11.66,14.65-4.92,12.55-11.65,22.47-17.97,33.06-7.25,12.15-12.92,26.04-17.41,41.08-2.2,7.37-4.82,14.35-7.61,21.22-12.68,31.32-23.33,64.11-30.06,99.79-5.35,28.31-11.21,56.38-14.59,85.44t0,.01c-.41,3.36-.76,6.72-1.08,10.1h146.04c.18-1.2.32-2.39.44-3.59.25-2.68.33-5.37.31-8.07-.01-3.2-.17-6.41-.35-9.6Zm-20.43-40.9c2.03,2.24,2.98,4.61,1.2,8.53-1.87,4.09-1.96,8.83-.18,13.2,1.17,2.84,2.44,6.61,4.89,5.92,2.32-.65,1.22-5.01,2.13-8.99,2.59,6.29,4,11.66,3.23,17.76-.43,3.33-.09,7.6-3.48,8.41-3.21.77-6.04,1.65-8.04-4.02-3.3-9.33-5.78-19.12-7.33-29.44-.54-3.64-.27-7.43,1.6-10.32,1.79-2.75,3.8-3.44,5.98-1.05Zm-7.28-55.38c.43,3.33.32,6.82.46,10.24-.04,0-.08,0-.11.01,0,.98.04,1.96-.01,2.93-.24,4.39.89,10.24-3.5,10.95-4.07.67-7.53-1.86-9.14-8.08-1.74-6.64-.89-13.53.01-20.25.43-3.19,2.22-4.2,4.06-3.4,3.16,1.36,7.34.6,8.24,7.61Zm-2.95-122.17c.36-4.81.51-11.29,4.45-11.08,4.14.22,3.19,7.06,3.83,11.67-.18,2.09-.26,4.28-.58,6.39-.39,2.62-1.52,4.27-3.3,4.36-1.7.09-2.96-1.21-3.81-3.51-.9-2.48-.78-5.22-.58-7.84Zm2.43,38.3c.05,6.67-4.97,15.65-8.94,15.97-4.01.33-6.79-4.61-6.88-12.24-.12-10.6,2.36-15.18,8.38-15.44,4.86-.22,7.39,3.76,7.44,11.71Zm-10.59-65.27c3.72-.09,4.96,4.24,5.14,8.84,0,7.35-2.81,14.09-5.65,14.14-3.22.06-4.84-4.32-4.76-12.9.06-5.51,1.35-10,5.27-10.09Zm-9.01,202.73c6.88,8.15,12.11,18.02,11.81,34.84-.02,4.55-.25,11.25-5.06,14.52-4.16,2.83-8.58.75-12.73-5.87-5.2-8.29-7.49-18.58-8.43-29.79-.53-6.43,2.07-9.95,5.09-12.98,3-3,6.37-4.22,9.32-.72Zm-15.97-154.28c3.62-.31,8.05,7.88,8.04,14.85-.01,7.05-4.88,14.4-10.1,14.6-3.11-.17-5.72-2.01-5.76-8.45-.07-11.13,3.45-20.63,7.81-21Zm-15.99,80.14c2.04-7.98,5.46-9.74,10.03-5.15,1.18,1.2,2.36,2.41,3.55,3.6,5,4.96,6.62,11.48,4.82,19.39-1.83,8.03-6.38,12.22-11.92,10.98-5.05-1.13-7.26-5.72-7.68-15.87-.02-.73-.08-1.47-.14-2.19-.05-3.73.46-7.31,1.33-10.76Z"/>
    <path d="m139.78,778.85c.09,1.57.2,2.31.17,3.03-.12,3.36,1.51,8.44-1.68,9.25-2.74.7-5.42-2.22-6.7-6.64-1.33-4.6-1.43-9.54-.76-14.38.55-3.96,2.29-6.71,4.98-6.37,2.53.32,3.65,3.59,3.94,7.18.23,2.88.05,5.84.05,7.92Z"/>
    <path d="m118.26,697.72c-.11,2.23-.47,4.07-1.61,3.24-2.18-1.59-4.9-2.77-5-7.65-.04-2.01.58-4.59,1.97-4.19,3.08.88,3.15,6.03,4.65,8.6Z"/>
    <path d="m155.28,712.17c-.3,2.18.05,6.37-1.64,5.83-3.23-1.02-4.19-6.09-4.72-10.68-.29-2.56.52-5.5,2.47-4.84,3.08,1.04,3.83,5.17,3.9,9.68Z"/>
  </g>
  <g>
    <path d="m645.63,320.61c-1.17-2.26-5.8-2.37-8.13-1.04-1.04.59-.69.37-3.42,3.7-2.08,2.53-2.41,3.43-2.55,3.81-.24.72-.68,2.05-.31,3.66,0,.01.01.03.01.05.34,1.49,1.53,3.3,2.77,3.82,2.57,1.07,7.21-2.64,7.33-5.93.04-1.38-.73-2.2-.15-3.08.79-1.18,2.73-.36,3.93-1.66.79-.86,1.02-2.36.51-3.34Zm0,0c-1.17-2.26-5.8-2.37-8.13-1.04-1.04.59-.69.37-3.42,3.7-2.08,2.53-2.41,3.43-2.55,3.81-.24.72-.68,2.05-.31,3.66,0,.01.01.03.01.05.34,1.49,1.53,3.3,2.77,3.82,2.57,1.07,7.21-2.64,7.33-5.93.04-1.38-.73-2.2-.15-3.08.79-1.18,2.73-.36,3.93-1.66.79-.86,1.02-2.36.51-3.34Zm72.8-96.95c-4.84-12.25-12.65-20.43-17.8-25.76-16.91-17.51-29.43-16.88-33.12-29.24-4.33-14.55,9.54-27.02,4.09-32.33-4.1-3.99-15.33-.21-21.93,5.21-6.36,5.22-8.45,11.98-10.04,17.09-1.49,4.82-4.68,15.13-1.11,25.64,5.27,15.52,19.67,14.96,29.73,35.3,1.3,2.63,3.79,6.98,4.46,13.01.26,2.31.86,8.47-2.07,14.75-.67,1.43-1.6,2.91-3.47,5.86-2.69,4.24-4.02,5.76-5.33,7.74-3.92,5.95-2.12,7.68-5.6,14.73-2.43,4.92-5.3,8.11-9.33,12.61-1.75,1.94-4.75,5.3-9.32,8.95-3.03,2.43-7.1,5.55-12.09,8.98-1.81,1.47-4.34,3.81-6.57,7.25-4.56,7.07-2.23,10.11-5.52,17.27-4.19,9.13-12.8,14.77-19.85,19.37-1.64,1.08-3.06,1.9-4.03,2.46-8.53,3-14.9,8.81-19.59,16.47-4.59,7.52-7.61,15.58-8.32,24.48-.92,11.38-11.15,17.91-21.88,14.62-7.38-2.26-15.01-3.18-22.49-.02-13.28,5.6-24.43,14.21-30.14,27.49-3.73,8.68-9.66,13.02-17.77,15.89-2.45.86-4.85,1.92-7.24,2.98-2.7,1.2-5.27,1.3-8-.08-7.12-3.56-14.79-4.44-22.37-2.53-21.32,5.37-39.06,16.26-51.12,35.2-2.67,4.19-5.8,7.76-9.86,10.61-8.56,5.98-17.24,11.82-25.51,18.19-10.56,8.16-21.48,15.34-34.88,17.92-2.36.46-4.63,1.53-6.84,2.55-18.52,8.49-33.08,20.9-35.53,42.32-2.12,18.4-8.81,34.99-16.4,51.46-1.59,3.45-3.91,6.05-7.38,7.76-6.32,3.1-11.97,7.28-16.42,12.71-10.71,13.04-18.11,27.31-21.85,42.68-3.82,15.7-2.72,28.28-2.5,32.32.96,18.11-2.16,44.89-19.03,84.15-1.13,2.66-2.34,5.38-3.62,8.17-.53,1.15-1.07,2.32-1.62,3.49-.22.46-.44.92-.65,1.39,91.87,2.64,183.73,5.28,275.6,7.93.05-.02.09-.04.15-.06,3.52-1.47,7.39-3.33,11.06-5.63h.01c6.8-4.28,12.89-10.11,14.86-18.01,2.41-9.63-3.46-13.8-11.77-37-5.34-14.91-7.75-26.67-8.56-35.78-1.36-15,1.58-22.82,2.82-25.77,1.32-3.14,2.33-5.83,4.12-7.73,23.66-25.37,48.69-49.23,76.12-70.55,31.75-24.67,63.3-49.56,90.42-79.57,20.09-22.23,65.49-76.07,62.81-120.89-.11-1.9.6-19.65,1.8-55.15.05-1.71-.98-7.46,1.09-14.2.73-2.37,1.7-4.3,3.63-8.07,4.62-9.03,5.55-8.73,7.79-13.85,1.76-4,4.22-9.8,3.24-16.66-.54-3.86-1.93-6.32-2.6-7.79-4.65-10.33,3.34-23.11,7.53-34.57,6.73-18.38,6.11-39.76-.2-55.73Zm-329.7,282.24c4.95-8.81,10.3-17.29,19.78-22.25-1.6,1.74-3.22,3.46-4.79,5.23-1.87,2.09-2.05,4.33-.38,6.63,1.73,2.4,4.04,2.67,6.43,1.33,5.47-3.07,10.5-6.85,14.99-11.18,3.13-3.02,2.08-6.37-1.87-8.19-1.03-.48-2.43-.2-3.11-1.47,5.86-5.38,17.26-5.96,23-1.31,2.51,2.04,2.06,4.46.63,6.48-9.98,14.21-21.65,26.29-39.35,30.65-4.88,1.2-9.27-.2-13.7-1.78-2-.71-2.67-2.27-1.62-4.15Zm-27.83,117.99c.47-2.9,1.52-5.72,2.3-8.56,2.97-14.12,10.59-25.13,22.45-33.33,8.21-5.67,16.48-6.94,25.31-1.47,8.63,5.34,11.66,13.02,11.2,23-.83,18.3-9.25,32.02-23.82,42.5-9.45,6.8-18.59,3.82-27.43-.91-7.78-4.18-11.44-12.4-10.01-21.23Zm10.56,73.55c1.77,2.59,3.43,5.25,5.09,7.91,3.44,5.51,4.16,11.31,1.91,17.48-1.73,4.75-3.32,9.54-4.97,14.31.03.01.06.02.1.04-2.53,6.86-4.95,13.76-7.58,20.59-3.93,10.19-11.48,16.36-22.28,17.12-10.39.73-17.72-5.25-23-13.7-3.93-6.3-5.24-13.44-3.79-20.62,3.27-16.18,8.69-31.52,19.45-44.51,10.92-13.19,25.46-12.68,35.05,1.38Zm-90.24-110.85c1.59-6.07,3.82-11.33,6.56-16.41,8.04-15.03,22.15-19.09,37.46-20.77,4.38-.48,8.33,4,8.79,9.27.81,9.4-1.74,17.98-7.17,25.57-4.04,5.65-8.28,11.2-12.84,16.43-9.54,10.9-26.53,9.03-33.78-3.53-2.27-3.93.69-7.37.99-10.56Zm-58.48,114.33c2.22-16.11,11.46-28.15,23.68-38.39,7.14-5.98,15.14-5.48,21.27,1.74,5.49,6.43,6.35,14.15,5.23,22.15-2.29,16.27-10.58,29.8-20.96,41.9-6.64,7.73-16.01,9.13-25.89,6.66-4.67-1.16-6.93-3.94-7.36-8.78-.76-8.71,1.09-16.94,4.02-25.27Zm284.22-171.47c-4.73,7.71-9.75,15.25-14.74,22.78-2.66,4.02-6.41,6.88-10.81,8.76-7.23,3.08-15.02,4.42-22.61,5.9-9.08,1.79-17.75-4.96-20.19-14.28-1.42-5.38-1.1-9.55,1.35-17.94,4.3-16.06,13.75-27.91,28.82-35.1,11.4-5.42,30.97.01,37.82,10.63,4.02,6.24,4.26,12.88.36,19.25Zm36.63-98.15c-.67,3.91-2.21,7.32-4.96,10.14-3.64,3.74-7.28,7.48-11.02,11.13-2.72,2.66-5.85,3.9-9.88,3.68-5.18-.28-10.41.59-15.6.37-5.56-.24-7.01-2.61-5.4-7.95,1.65-5.52,3.92-10.69,9.53-14.26-.01,2.01-.21,3.53,0,5.01.57,3.93,4.07,6.38,7.9,5.68,5.13-.94,11.12-6.73,12.2-11.75.7-3.26,0-5.16-3.89-4.59-2.84.42-5.71.6-9.16.96,7.86-8.27,21.15-9.13,28.93-2.53,1.38,1.16,1.64,2.36,1.34,4.1Zm59.54,36.93c-.21,2.94-2.13,5.08-3.78,7.3-5.38,7.24-12.08,12.88-20.43,16.46-1.41.6-2.94,1.29-3.98,2.36-4.07,4.21-8.83,5.41-14.25,3.42-6.01-2.2-9.72-6.48-10.69-12.95-.51-3.33-.17-6.57,1-10.38,3.55-10.12,9.56-19.33,18.59-26.34,6.73-5.23,13.49-5.52,21.31-.65,7.62,4.73,12.93,11.07,12.23,20.79Zm-13.99-65.4c-6.62,3.08-13.18-2.24-13.31-10.49-.03-2.07.17-4.18,1.95-6.63,2.08,5.27,4.96,8.41,10.46,6.88,4.33-1.21,8.45-6.81,8.23-10.98-.26-5-4.65-9-11.34-9.91,3.3-2.53,5.42-6.68,10.3-4.76,6.11,2.43,10.35,8.16,10.14,13.15-.45,11.23-6.85,18.29-16.44,22.75Zm37.82-71.25c-.38-2.5.41-4.49.85-5.56,1.14-2.75,2.42-2.5,4.28-5.56,2.01-3.3,1.32-4.81,3.04-6.01,2.12-1.47,5.08-.55,6.35-.17,3.21.99,6.79,3.65,8.14,7.89,2.05,6.43-2.55,11.79-3.29,12.66-.32.37-5.6,6.37-11.52,5.01-1.97-.45-3.39-1.57-4-2.06-.73-.59-3.3-2.65-3.85-6.2Zm18.15,91.76c-.64.18-1.57.44-2.01.14-4.39-2.97-7.46-7.22-10.39-11.48-2.01-2.92.58-5.54,1.43-9.3,5.35,8.95,8.25,10.61,12.64,7.95,5.6-3.4,8.37-12.08,5.35-16.83-2.8-4.42-7.44-4.92-13.01-1.4,2.05-6.75,4.99-9.19,10.14-8.37,9.56,1.52,15.09,6.84,15.01,14.43-.12,11.58-8.1,21.93-19.16,24.87Zm45.61-88.88c-.84,1.67-5.48,10.84-12.02,10.25-4.26-.38-7.03-4.7-7.27-5.09-1.62-2.61-1.68-5.21-1.7-6.62-.01-.76.03-2.56,2.12-8.26,1.5-4.1,2.24-6.15,3.71-8.59,2.48-4.14,4.04-6.72,6.54-7.12,4.05-.65,8.44,4.81,10.17,9.22,2.92,7.41-.61,14.4-1.54,16.22Zm-12.45-15.27c-.94.95-.62.61-2.61,5.02-1.51,3.36-1.61,4.43-1.63,4.88-.05.85-.14,2.42.74,4.07.1.2,1.47,2.83,4.16,3.38,3.64.76,7.78-2.62,7.7-5.65-.03-.99-.52-2.2-1.5-2.94-1.88-1.42-3.99.11-5.06-1.07-1.13-1.27.19-4.22,1.31-5.72.44-.58,1.06-1.42,1.77-1.33,1.07.15,1.03,1.83,2.41,2.32.77.27,1.77.09,2.29-.47.81-.88.49-2.76-.44-3.77-1.94-2.1-6.99-.85-9.13,1.28Zm-36.93,9.48c.04-1.38-.73-2.2-.15-3.08.79-1.18,2.73-.36,3.93-1.66.79-.86,1.02-2.36.51-3.34-1.17-2.26-5.8-2.37-8.13-1.04-1.04.59-.69.37-3.42,3.7-2.08,2.53-2.41,3.43-2.55,3.81-.24.72-.68,2.05-.31,3.66,0,.01.01.03.01.05.34,1.49,1.53,3.3,2.77,3.82,2.57,1.07,7.21-2.64,7.33-5.93Z"/>
    <path d="m331.76,724.63c1.42-4.1,2.68-8.27,4.3-12.29,1.88-4.65,5.31-6.16,10.08-4.74,2.16.64,4.26,1.46,6.39,2.2,2.43.84,3.7,2.52,3.51,5.12-.18,2.44-1.62,3.88-4,4.01-3.36.19-4.84,2.22-5.77,5.09-1.38,4.3-2.87,8.56-4.25,12.86-.76,2.34-.09,4.09,2.33,4.99,2.32.87,3.03-.74,3.81-2.39,1.26-2.64,3.14-5.3,6.28-4.15,3.51,1.29,3.47,4.86,2.92,8.06-.43,2.45-1.72,4.51-3.6,6.19-4.62,4.13-12,4.36-18.56.57-4.52-2.61-7.28-8.89-6.08-14.37.82-3.73,1.99-7.38,3-11.06l-.34-.1Z"/>
    <path d="m477.73,523.56c-2.4,1.41-3.33,3.33-4.54,4.97-4.03,5.48-4.03,5.59,2.57,7.09,3.45.79,3.31,2.43,1.57,4.77-3.13,4.22-11.81,6.66-16.65,4.59-3.4-1.46-5.19-3.93-4.52-7.83,1.57-9.28,6.23-16.5,14.32-21.37,3.51-2.11,6.75-2.36,8.15,2.43.53,1.79,1.71,2.38,3.13,3.09,2.03,1.01,3.29,2.64,2.73,5.06-.41,1.77-1.36,3.46-3.29,3.6-1.83.13-1.69-1.86-2.2-3.05-.4-.93-.73-1.9-1.27-3.34Z"/>
    <path d="m389.8,616.86c4.18-2.82,7.28-4.07,10.27-1.33,3.02,2.76,1.66,6.11.69,9.25-3.18,10.26-9.41,13.18-17.95,8.64-3.22-1.71-4.94-4.36-5.32-7.84-1.24-11.24,2.16-21,10.2-28.89,4.36-4.27,9.95-5.58,15.95-4.39,5.17,1.02,7.61,5.99,5.4,10.76-.91,1.96-2.32,3.76-4.49,3.99-2.17.23-2.24-2.28-3.23-3.58-1.13-1.47-1.37-4.35-3.32-4.27-2.07.08-2.96,2.69-3.96,4.5-2.03,3.65-2.84,7.68-4.23,13.17Z"/>
    <path d="m246.94,691.43c-.76,2.78-1.37,5.3-2.15,7.77-1.03,3.23-1.62,5.94,1.37,8.94,2.81,2.81,1.92,6.69-.84,9.38-3.27,3.18-7.18,3.26-10.96.7-5.02-3.38-7.86-12.02-6.15-18.8,1.19-4.72,2.58-9.39,3.87-14.09.97-3.53,3.11-6.19,6.12-8.15,4.79-3.13,7.58-2.71,11.42,1.52,1.17,1.28,2.5,2.41,3.72,3.64,2.28,2.31,2.89,5.14,2.07,8.19-.66,2.44-2.08,4.71-4.62,5.18-2.71.5-1.51-3.09-3.84-4.27Z"/>
    <path d="m562.37,470.82c2.72-5.59,5.86-11.19,12.36-13.72,3.21-1.25,6.53-1.1,8.04,2.39,1.6,3.7,4.85,7.57.75,11.83-3.85,4-8.35,6.72-13.84,7.71-4.61.83-8.53-3.39-7.31-8.2Z"/>
    <path d="m288.88,580.66c2.76-10.51,9.18-16.06,17.44-19.7,2.91-1.28,6.36.25,9.54-1.19,1.64-.74,2.59,1.16,3,2.8.63,2.52.31,5.27-1.15,7.01-5.29,6.28-8.42,14.32-15.94,18.83-3.72,2.23-6.82,2.79-10.51.22-3.71-2.58-3-5.84-2.38-7.97Z"/>
  </g>
  <path d="m1610.54,894.52H0v-83.62c14.2,8.54,26.59,11.65,31.47,9.43,4.16-1.89,5.88-4.87,5.88-4.87,1.14-1.97,1.02-3.39,1.42-4.36,2.93-7.15,26.04-1.57,26.04-1.57,73.58,17.78,151.48,2.03,226.94,8,139.89,11.08,557.5,16.42,763.77-8.43,65.82-7.93,133.26,3.82,198.79-6.26,0,0,85.21-13.12,86.98,7.19.03.37.04,2.89,1.38,5.75.25.54,1.36,2.8,3.73,4.9,4.41,3.9,9.7,4.13,10.86,4.15,1.58.03,7.89.17,11.39-4.15,1.99-2.46,2.45-5.32,2.45-5.32.29-1.78-.13-2.24.17-3.09.76-2.15,18.63-3.46,19.36,0,.1.47-.2.74-.19,1.84,0,1.8.8,3.15,1.24,3.9.95,1.61,5.05,7.04,11.85,6.92,1.06-.02,6.05-.23,8.96-3.88,1.91-2.39,2.43-5.66,2.57-6.53.22-1.37.1-1.76.21-2.26.75-3.46,11.38-6.47,31.19-4.53,17.92,1.75,27.76,4.53,27.76,4.53,28.52,7.03,36.97,15.16,63.64,15.91,30.57.86,55.88-8.8,72.72-17.28v83.62Z"/>
  <path d="m645.12,323.94c-1.2,1.3-3.14.48-3.93,1.66-.58.87.19,1.69.15,3.08-.11,3.29-4.76,7-7.33,5.93-1.25-.52-2.43-2.34-2.77-3.82,0-.02-.01-.04-.01-.05-.36-1.61.07-2.94.31-3.66.14-.38.47-1.29,2.55-3.81,2.73-3.33,2.38-3.11,3.42-3.7,2.33-1.33,6.95-1.22,8.13,1.04.51.98.28,2.47-.51,3.34Z"/>
  <path d="m681.38,321.18c-1.12,1.5-2.44,4.45-1.31,5.72,1.07,1.18,3.18-.35,5.06,1.07.98.74,1.47,1.95,1.5,2.94.08,3.03-4.06,6.41-7.7,5.65-2.69-.55-4.05-3.18-4.16-3.38-.87-1.65-.79-3.22-.74-4.07.02-.46.12-1.53,1.63-4.88,1.98-4.41,1.67-4.07,2.61-5.02,2.14-2.13,7.19-3.38,9.13-1.28.92,1.01,1.25,2.89.44,3.77-.52.56-1.52.74-2.29.47-1.38-.49-1.34-2.17-2.41-2.32-.71-.09-1.33.75-1.77,1.33Z"/>
  <path d="m645.12,323.94c-1.2,1.3-3.14.48-3.93,1.66-.58.87.19,1.69.15,3.08-.11,3.29-4.76,7-7.33,5.93-1.25-.52-2.43-2.34-2.77-3.82,0-.02-.01-.04-.01-.05-.36-1.61.07-2.94.31-3.66.14-.38.47-1.29,2.55-3.81,2.73-3.33,2.38-3.11,3.42-3.7,2.33-1.33,6.95-1.22,8.13,1.04.51.98.28,2.47-.51,3.34Z"/>
  <path d="m681.38,321.18c-1.12,1.5-2.44,4.45-1.31,5.72,1.07,1.18,3.18-.35,5.06,1.07.98.74,1.47,1.95,1.5,2.94.08,3.03-4.06,6.41-7.7,5.65-2.69-.55-4.05-3.18-4.16-3.38-.87-1.65-.79-3.22-.74-4.07.02-.46.12-1.53,1.63-4.88,1.98-4.41,1.67-4.07,2.61-5.02,2.14-2.13,7.19-3.38,9.13-1.28.92,1.01,1.25,2.89.44,3.77-.52.56-1.52.74-2.29.47-1.38-.49-1.34-2.17-2.41-2.32-.71-.09-1.33.75-1.77,1.33Z"/>
  <path d="m1084.56,825.22c-.08-.63-.09-1.46-.09-2.55-.01-18.37,0-36.74,0-55.1,0-9.63-.02-19.25,0-28.88,0-2.53-.64-4.57-3.61-4.39-3.06.19-4.93-1.42-6.71-3.53-6.55-7.77-11.8-16.04-10.83-26.86.15-1.71-.45-3.19-2.44-3.28-2.16-.09-2.7,1.44-2.9,3.27-.43,3.87-.46,3.73-5.86,3.83-2.96.06-4.34-.85-4.08-3.96.14-1.63-.29-3.25-2.42-3.21-2.27.05-2.49,1.71-2.52,3.51-.05,3.08.01,6.17-.79,9.19-1.92,7.26-6.23,13.11-10.98,18.7-1.3,1.53-2.95,2.26-4.96,2.25-1.46,0-2.79.22-3.86,1.48-1.97,2.32-3.35,2.28-4.02-.49-1.28-5.3-4.3-7.31-9.54-6.43-.63.11-1.32-.1-1.98-.14-5.44-.37-6.58.32-8.12,5.51-.7,2.37-1.99,3.51-4.5,3.47-4.42-.07-8.86.12-13.28-.05-4.63-.17-7.93-4.21-12.54-4.59-.08,0-.15-.15-.22-.24-7.06-8.16-13.27-16.69-12.54-28.31.12-1.87-.1-3.77-2.57-3.8-2.44-.03-2.73,1.85-2.74,3.72-.01,1.84-.3,3.36-2.64,3.32-1.22-.02-2.44-.03-3.65.02-2.05.09-3.12-.74-3.06-2.9.06-2.12-.26-4.28-2.99-4.23-2.97.05-2.86,2.45-2.98,4.61-.17,3.28.35,6.56-.77,9.85-2.26,6.66-6.58,11.94-10.92,17.24-1.23,1.5-2.8,2.05-4.69,1.97-1.48-.07-2.98.11-3.78,1.55-1.17,2.12-3.05,2.08-4.9,1.59-2.08-.55-1.37-2.48-1.51-3.93-.22-2.16.86-4.89-1.03-6.33-3.12-2.38-3.21-5.84-4.18-9.01-.42-1.37-.91-2.45-2.34-2.93-4.93-1.62-7.97.13-9.03,5.12-.27,1.29-.39,2.93-1.24,3.71-3.21,2.97-2.86,6.72-2.76,10.44.06,2.27-.95,3.18-3.18,3.17-9.29-.04-18.59-.06-27.88,0-2.37.02-3.37-1.14-3.73-3.3-.52-3.08-.29-6.18-.38-9.27-.11-3.46-1.61-5.23-4.53-5.28-2.82-.05-4.08,1.47-4.16,5.08-.08,3.54.03,7.08-.92,10.55-.53,1.91-1.86,2.23-3.55,2.2-1.72-.03-2.5-.75-2.88-2.49-.81-3.7-1.18-7.41-1.14-11.19.02-2.13-.32-4-3.2-3.99-4.06.01-5.25.75-5.41,4.04-.15,3.09-.04,6.2-.18,9.29-.17,3.76-1.02,4.32-4.64,4.38-3.42.05-3.22-2.13-3.28-4.44-.06-2.17.97-5.05-.83-6.35-3.02-2.19-3.15-5.43-4.2-8.33-.67-1.86-1.09-3.93-3.46-3.7-2.73.26-6.16-.8-7.32,3.43-.66,2.42-.59,5.51-2.53,7.05-2.52,1.99-2.2,4.33-2.24,6.81-.02,1.11-.02,2.21-.06,3.32-.05,1.54-.96,2.1-2.39,2.14-3.41.1-2.84-2.41-2.84-4.42-.02-44.26-.02-88.52-.02-132.78,0-1.66.02-3.33-.12-4.97-1.2-13.65-2.28-27.3-2.54-41.01-.03-1.33.25-2.9-.7-3.84-2.29-2.25-1.96-5.01-1.96-7.75,0-4.65-.09-9.3.03-13.94.07-2.88-.62-4.79-4-4.6-1.6.09-2.58-.8-2.48-2.42.26-4.46-1.37-8.67-1.66-13.1-.24-3.68-.94-7.41-1.44-11.12-1.14-8.5-2.37-16.99-3.64-25.47-.82-5.47-1.6-10.93-1.31-16.48.05-.97-.06-2.21-1.34-2.32-1.46-.13-1.78,1.13-1.89,2.25-.16,1.66-.17,3.33-.24,5-.58-1.87-.66-3.73-.95-5.56-.13-.84-.59-1.8-1.72-1.67-.97.11-1.06,1.01-1.16,1.77-.07.55-.1,1.11-.07,1.66.44,9.46-1.99,18.62-3.04,27.91-1.37,12.14-3.63,24.18-4.94,36.35-.2,1.86-.72,3.27-2.92,3.22-2.53-.06-3.16,1.38-3.14,3.62.06,5.64.03,11.29,0,16.93,0,.99.27,2.43-.26,2.9-3.26,2.86-2.3,6.7-2.57,10.2-1.16,15.43-2.55,30.83-2.53,46.33.06,43.15.02,86.31.03,129.46,0,2.16-.03,3.97-3.03,3.91-2.88-.06-2.72-1.9-2.78-3.85-.06-2.2.95-5.08-.49-6.45-2.82-2.69-3.44-6.1-4.42-9.4-.92-3.11-3.2-2.91-5.53-2.9-2.31.01-4.32.29-5.08,3.15-.62,2.32-.58,5.12-2.39,6.8-2.65,2.47-2.63,5.47-2.49,8.53.11,2.46-.18,4.1-3.2,4.15-4.06.07-4.79-.38-4.91-3.88-.11-3.32-.04-6.64-.32-9.95-.22-2.63-1.6-4.26-4.58-4.08-3,.18-4.02,1.83-3.88,4.6.17,3.45-.59,6.82-.99,10.22-.27,2.36-1.46,3.16-3.76,3.08-2.56-.09-3.15-1.53-3.15-3.69,0-3.54-.01-7.08-.63-10.59-.44-2.5-1.93-3.6-4.37-3.61-2.44-.01-3.63,1.24-3.85,3.62-.35,3.85-.82,7.69-1.11,11.55-.15,1.97-1.1,2.7-2.98,2.7-9.52-.03-19.03-.02-28.55,0-1.85,0-2.98-.64-2.93-2.68.1-3.96.36-7.91-2.98-11-.87-.81-1-2.19-1.06-3.43-.07-1.37-.64-2.6-1.33-3.72-1.62-2.64-4.32-1.64-6.64-1.72-1.92-.06-2.97,1.05-3.41,2.95-.5,2.14-.59,5.02-2,6.17-3.56,2.89-3.2,6.5-3.22,10.22,0,1.2.1,2.6-1.45,2.99-1.4.35-3.34.75-4.07-.46-1.62-2.7-4.02-2.71-6.58-2.83-1.03-.05-1.85-.63-2.54-1.42-6.98-8.08-13.18-16.47-11.99-28.07.2-1.97-.26-4.01-2.85-3.97-2.38.03-3.17,1.74-3.05,3.89.14,2.54-1.19,3.33-3.47,3.18-.99-.06-1.99-.04-2.99,0-1.91.07-2.88-.75-2.87-2.74.02-2.04-.02-4.35-2.82-4.36-3.02-.01-2.87,2.59-3.04,4.62-.18,2.2-.1,4.42-.14,6.63-.02,1.34-.35,2.58-.82,3.86-2.08,5.71-5.57,10.48-9.47,15.06-1.83,2.14-3.64,3.82-6.67,3.51-.88-.09-2.03.06-2.36.91-1.08,2.74-3.33,2.44-5.54,2.43-4.32-.02-8.63-.09-12.95.03-2.36.06-3.93-.83-4.39-3.11-.89-4.44-3.42-6.41-7.95-5.82-.64.08-1.31-.19-1.97-.23-6.31-.37-7.16.19-9.5,6.09-.16.41-.35.81-.54,1.21-.99,2.05-2.25,2.48-3.62.42-.9-1.35-2.06-2.02-3.6-1.94-3,.15-4.96-1.44-6.68-3.63-6.11-7.77-11.45-15.81-10.29-26.43.21-1.94-.55-3.63-2.87-3.64-2.3,0-3.02,1.63-2.96,3.6.16,5.05-3.62,3.18-6.11,3.54-2.91.41-4.04-.93-3.8-3.8.14-1.64-.23-3.25-2.34-3.29-2.39-.04-2.43,1.76-2.48,3.49-.09,2.76.29,5.64-.39,8.25-2.05,7.87-6.6,14.38-12.13,20.25-.95,1.01-2.08,1.51-3.5,1.63-4.63.39-4.63.44-4.63,5.21,0,26.89.02,53.78-.01,80.66,0,1.31.02,2.36.03,3.23.46.63.73,1.26.09,1.89-1.33,5.99-1.33,11.64-.99,17.29,4.75,0,9.5.02,14.25.02,205.84,0,411.67,0,617.51,0-.43-5.71-1.15-11.37-1.34-17.31Z"/>
  <g>
    <path d="m1517.67,728.48c-12.3-25.78-30.06-44.41-60.9-46.71-19.15-1.43-37.56.86-55.84,6.03-6.85,1.94-13.73,3.57-20.84,4.45-11.07,1.38-20.64,6.5-28.86,13.87-22.17,19.87-38.29,43.38-42.15,73.7-.66,5.22-.97,10.47-.86,15.7.03,1.57.11,3.12.22,4.68.25,3.89.76,7.79,1.53,11.66.12.68.26,1.37.41,2.05,10.22,3.3,20.43,6.61,30.65,9.92-.16-4.02-.23-7.6-.28-10.66h0c-.01-1.49-.02-2.85-.03-4.07-.02-6.41.08-7.94.76-9.91,1.41-4.13,4.23-7.65,8.14-10.55,7.26-5.37,15.12-3.15,18.97,4.89,3.11,6.5,3.62,13.34,2.38,20.38h19.59c.19-.72.37-1.43.57-2.14,1.7-6.1,7.63-10.28,13.67-9.65,5.26.56,10.09,5.86,10.71,11.78h59.68c-4.02-4.36-7.99-8.77-12.09-13.06-8.65-9.03-12.58-20.33-15.51-32.09-.79-3.19,1.96-5.57,5.12-4.42,13.81,5.02,24.91.07,34.76-9.34,2.26-2.16,4.64-3.48,7.73-3.88,3.97-.51,7.96-1.05,11.84-2.01,9.76-2.4,14.96-11.56,10.64-20.62Zm-88.62,27.95c6.5-.14,12.21,5.92,12.35,13.13.14,6.77-3.23,10.38-9.7,10.43-8.47.06-12.65-4.43-12.61-13.54.03-6.25,3.63-9.87,9.96-10.02Zm-40.07,17.97c-10.33.04-17.64-9.72-14.82-19.78.37-1.3.87-2.57,1.96-3.43,3.14-2.48,6.11-5.21,9.74-6.98,8.85-4.33,17.7-1.34,21.19,7.11,4.65,11.25-4.57,23.01-18.06,23.07Zm57.17-23.04c-1.41-.17-2.29-.25-3.17-.38-3.9-.57-6.32-2.25-7.33-5.11-.43-1.2-.61-2.61-.55-4.23.03-.82.15-1.59.35-2.29.93-3.36,3.67-5.31,8.1-5.47,4.01-.14,7.94-.58,11.9-1.17,3.58-.54,6.49.99,7.7,4.56,1.12,3.28,1.12,6.98-2.1,8.81-4.72,2.67-9.97,4.37-14.9,5.29Zm16.1,8.9c-1.43.33-2.41-1.55-3.2-2.75-.57-.86.22-1.28,1.01-1.44,6.43-1.35,12.87-2.68,19.3-4.02-4.38,5.9-10.91,6.78-17.11,8.21Z"/>
    <path d="m1361.42,807.88c-.25-3.12.33-5.06.95-6.27.21-.42.58-1.05.58-1.94,0-1.19-.62-2.33-1.7-3.25-1.7-1.44-3.61-1.98-5.76-.93-5.93,2.92-8.94,12.26-5.92,18.4,1.13,3.11,3.64,5.12,6.23,5.11,2.19,0,3.68-1.46,4.04-1.81,2.2-2.15,2.75-5.77,1.57-9.32Z"/>
    <path d="m1391.75,760.9c1.41.78-.45,3.16,1.85,3.02,1.49-.09,2.39-1.09,2.66-2.56.38-2.04.87-4.07,1.03-6.12.23-2.91-2.97-5.17-6.58-4.81-5.44.54-10.85,7.25-10.21,12.7.32,2.71,1.84,4.65,4.56,4.41,2.18-.19,5.47.05,4.91-4.01-.15-1.11.69-1.89,1.77-2.64Z"/>
    <path d="m1444.57,746.6c2.34-.61,5.12-.85,4.87-4.09-.19-2.4-2.03-3.62-4.4-3.29-2.38.33-4.31,1.75-4.33,4.28-.02,2.23,1.62,3.32,3.86,3.11Z"/>
    <path d="m1424.34,770.06c.14,2.46,2.11,3.71,4.7,3.65,3.56-.08,4.76-2.98,4.81-5.8.05-2.59-1.48-4.89-4.51-5.18-2.57-.25-5.04,3.21-5.01,7.33Z"/>
  </g>
</svg>