<?xml version="1.0" encoding="UTF-8"?>
<svg id="Layer_1" data-name="Layer 1" xmlns="http://www.w3.org/2000/svg" viewBox="0 0 177.76 179.07">
  <defs>
    <style>
      .cls-1 {
        fill: #fff;
      }
    </style>
  </defs>
  <polygon class="cls-1" points="79.88 76.04 103.26 89.54 79.88 103.04 79.88 76.04"/>
  <path class="cls-1" d="m88.88,22.04c-37.28,0-67.5,30.22-67.5,67.5s30.22,67.5,67.5,67.5,67.5-30.22,67.5-67.5S126.16,22.04,88.88,22.04Zm43.12,89.16c-1.03,3.87-4.08,6.92-7.96,7.96-7.01,1.88-35.16,1.88-35.16,1.88,0,0-28.14,0-35.16-1.88-3.87-1.04-6.92-4.09-7.96-7.96-1.88-7.02-1.88-21.66-1.88-21.66,0,0,0-14.65,1.88-21.67,1.04-3.87,4.09-6.92,7.96-7.95,7.02-1.88,35.16-1.88,35.16-1.88,0,0,28.15,0,35.16,1.88,3.88,1.03,6.93,4.08,7.96,7.95,1.88,7.02,1.88,21.67,1.88,21.67,0,0,0,14.64-1.88,21.66Z"/>
</svg>